<svg width="160" height="17" viewBox="0 0 160 17" fill="none" xmlns="http://www.w3.org/2000/svg">
<path d="M7.0957 7.08984C9.46831 4.71946 12.9853 4.37769 14.9355 6.33105C16.8866 8.28248 16.5461 11.7993 14.1748 14.1709C13.0357 15.3099 11.6009 16.0209 10.1338 16.1729C9.93851 16.1921 9.74488 16.2021 9.55566 16.2021C8.29401 16.2021 7.16628 15.76 6.33594 14.9297C5.38006 13.9747 4.93878 12.6255 5.09473 11.1318C5.24562 9.66449 5.9565 8.22909 7.0957 7.08984ZM14.8145 6.45215C14.1654 7.23488 13.6855 8.12802 12.8887 8.7832C12.0402 9.48076 11.1067 9.73554 10.0801 10.0332C7.82711 10.6874 6.71334 12.592 6.45605 14.8086C7.15965 13.9631 7.67649 13.0153 8.56543 12.3359C9.34295 11.7428 10.1844 11.5079 11.0996 11.2578C13.4021 10.6258 14.5461 8.70423 14.8145 6.45215ZM1.2666 1.26758C3.21694 -0.684859 6.73384 -0.343328 9.10645 2.02734C9.73816 2.65912 10.2221 3.38587 10.5674 4.1543C9.43337 4.34979 8.33439 4.82431 7.36035 5.53613C6.98978 5.30327 6.58581 5.10341 6.12109 4.96875C5.09538 4.67105 4.16103 4.41744 3.3125 3.71875C2.51662 3.06358 2.03776 2.16945 1.3877 1.3877C1.65503 3.63988 2.79883 5.56145 5.10156 6.19336C5.49034 6.29967 5.86309 6.40849 6.22656 6.53809C5.12895 7.69447 4.40552 9.10315 4.15332 10.5684C3.38495 10.222 2.65711 9.73916 2.02539 9.10742C-0.343096 6.73581 -0.684554 3.21904 1.2666 1.26758Z" fill="#0E8784"/>
<path d="M117.583 5.72461C118.037 5.72462 118.408 5.76914 118.694 5.8584C118.98 5.94757 119.201 6.03681 119.359 6.12598C119.517 6.21525 119.637 6.25977 119.717 6.25977C119.805 6.25966 119.936 6.21728 120.108 6.13184C120.28 6.04633 120.454 5.96265 120.63 5.88086C120.806 5.79904 120.953 5.75781 121.071 5.75781C121.202 5.75791 121.309 5.80262 121.389 5.8916C121.47 5.98087 121.525 6.13387 121.554 6.34961L121.84 8.40234C121.892 8.69991 121.899 8.92892 121.863 9.08887C121.826 9.24875 121.731 9.35085 121.577 9.39551C121.452 9.42526 121.32 9.40135 121.18 9.32324C121.041 9.24513 120.902 9.12027 120.762 8.94922C120.227 8.13841 119.737 7.56522 119.293 7.23047C118.85 6.89577 118.378 6.72852 117.879 6.72852C117.52 6.72852 117.248 6.80667 117.065 6.96289C116.882 7.11911 116.791 7.32423 116.791 7.57715C116.791 7.74805 116.83 7.90801 116.911 8.05664C116.991 8.20541 117.141 8.34444 117.357 8.47461C117.573 8.6048 117.88 8.73389 118.276 8.86035C119.339 9.18764 120.165 9.53513 120.751 9.90332C121.338 10.2715 121.749 10.6938 121.984 11.1699C122.219 11.646 122.335 12.2007 122.335 12.833C122.335 13.8743 121.987 14.6963 121.291 15.2988C120.594 15.9014 119.592 16.2021 118.287 16.2021C117.847 16.2021 117.482 16.1619 117.192 16.0801C116.902 15.9983 116.667 15.9158 116.488 15.834C116.308 15.7522 116.163 15.712 116.053 15.7119C115.943 15.7119 115.798 15.7523 115.619 15.834L115.079 16.0801C114.899 16.1617 114.747 16.2021 114.623 16.2021C114.513 16.2021 114.409 16.1652 114.314 16.0908C114.219 16.0164 114.146 15.8675 114.094 15.6445L113.753 13.4238C113.687 13.1412 113.676 12.9033 113.72 12.71C113.764 12.5165 113.863 12.3896 114.017 12.3301C114.178 12.2557 114.338 12.2525 114.496 12.3193C114.653 12.3863 114.795 12.5057 114.919 12.6768C115.338 13.3239 115.716 13.8332 116.053 14.2051C116.391 14.577 116.719 14.8397 117.038 14.9922C117.357 15.1447 117.692 15.2207 118.044 15.2207C118.418 15.2207 118.697 15.1314 118.88 14.9531C119.064 14.7747 119.156 14.5475 119.156 14.2725C119.156 14.0643 119.103 13.8742 118.997 13.7031C118.89 13.532 118.695 13.3736 118.413 13.2285C118.13 13.0835 117.725 12.9401 117.197 12.7988C116.383 12.5905 115.708 12.3191 115.172 11.9844C114.637 11.6497 114.239 11.2479 113.979 10.7793C113.719 10.3106 113.588 9.76356 113.588 9.13867C113.588 8.43211 113.762 7.82395 114.111 7.31445C114.459 6.80493 114.936 6.41292 115.542 6.1377C116.147 5.86248 116.827 5.72461 117.583 5.72461ZM155.247 5.72461C155.701 5.72461 156.072 5.76916 156.358 5.8584C156.644 5.94767 156.866 6.03671 157.024 6.12598C157.182 6.21522 157.301 6.25975 157.381 6.25977C157.469 6.25977 157.6 6.21737 157.772 6.13184C157.944 6.04633 158.118 5.96265 158.294 5.88086C158.47 5.79903 158.617 5.75781 158.735 5.75781C158.867 5.75783 158.974 5.80235 159.054 5.8916C159.135 5.98087 159.19 6.13389 159.219 6.34961L159.505 8.40234C159.557 8.69991 159.564 8.92892 159.527 9.08887C159.49 9.24876 159.395 9.35088 159.241 9.39551C159.116 9.42518 158.984 9.40117 158.845 9.32324C158.706 9.24513 158.566 9.12032 158.426 8.94922C157.891 8.1385 157.401 7.56519 156.958 7.23047C156.514 6.89588 156.042 6.72852 155.543 6.72852C155.184 6.72857 154.913 6.8069 154.73 6.96289C154.547 7.11911 154.455 7.32422 154.455 7.57715C154.455 7.74812 154.495 7.90795 154.576 8.05664C154.656 8.20532 154.805 8.3445 155.021 8.47461C155.237 8.6048 155.544 8.73389 155.94 8.86035C157.003 9.18764 157.829 9.53513 158.416 9.90332C159.002 10.2715 159.413 10.6938 159.648 11.1699C159.883 11.646 160 12.2007 160 12.833C160 13.8743 159.651 14.6963 158.955 15.2988C158.258 15.9013 157.256 16.2021 155.951 16.2021C155.511 16.2021 155.146 16.1619 154.856 16.0801C154.566 15.9983 154.332 15.9158 154.152 15.834C153.972 15.7522 153.827 15.7119 153.717 15.7119C153.607 15.7119 153.462 15.7522 153.283 15.834L152.744 16.0801C152.564 16.1619 152.411 16.2021 152.287 16.2021C152.177 16.2021 152.074 16.1651 151.979 16.0908C151.884 16.0164 151.81 15.8677 151.758 15.6445L151.417 13.4238C151.352 13.1413 151.34 12.9033 151.384 12.71C151.428 12.5165 151.528 12.3896 151.682 12.3301C151.843 12.2559 152.003 12.2525 152.161 12.3193C152.318 12.3863 152.459 12.5058 152.583 12.6768C153.002 13.3239 153.38 13.8331 153.717 14.2051C154.055 14.577 154.383 14.8397 154.702 14.9922C155.021 15.1446 155.357 15.2206 155.708 15.2207C156.083 15.2207 156.362 15.1316 156.545 14.9531C156.729 14.7747 156.82 14.5475 156.82 14.2725C156.82 14.0642 156.767 13.8742 156.661 13.7031C156.554 13.532 156.36 13.3736 156.078 13.2285C155.795 13.0835 155.39 12.9402 154.862 12.7988C154.048 12.5906 153.373 12.3191 152.837 11.9844C152.302 11.6496 151.903 11.248 151.643 10.7793C151.383 10.3107 151.252 9.76352 151.252 9.13867C151.253 8.43213 151.427 7.82394 151.775 7.31445C152.123 6.80492 152.6 6.41294 153.206 6.1377C153.811 5.86246 154.491 5.72463 155.247 5.72461ZM28.2466 5.72461C29.1487 5.72465 29.91 5.8582 30.5298 6.12598C31.1494 6.39373 31.6223 6.75653 31.9487 7.21387C32.2751 7.67126 32.4389 8.18284 32.439 8.74805C32.439 9.34292 32.2681 9.80999 31.9272 10.1484C31.5861 10.4869 31.1215 10.6562 30.5347 10.6562C29.9333 10.6562 29.4763 10.4836 29.1646 10.1377C28.8529 9.79179 28.6978 9.31727 28.6978 8.71484V8.00098C28.6978 7.63646 28.6316 7.36078 28.4995 7.1748C28.3675 6.98889 28.18 6.89648 27.938 6.89648C27.6961 6.89652 27.478 6.99454 27.2837 7.19141C27.0893 7.38854 26.9389 7.68482 26.8325 8.0791C26.7262 8.47336 26.6724 8.9608 26.6724 9.54102C26.6724 10.3741 26.7958 11.0734 27.0415 11.6387C27.2872 12.204 27.6229 12.6285 28.0483 12.9111C28.4737 13.1937 28.9578 13.3349 29.5005 13.335C30.0432 13.335 30.498 13.2546 30.8647 13.0947C31.2315 12.9348 31.5143 12.6654 31.7124 12.2861C31.8224 12.182 31.9088 12.1147 31.9712 12.085C32.0334 12.0553 32.0942 12.04 32.1528 12.04C32.226 12.0476 32.2859 12.0834 32.3335 12.1465C32.3812 12.2097 32.4014 12.3085 32.394 12.4424C32.3353 13.1712 32.1118 13.8143 31.7231 14.3721C31.3344 14.93 30.8101 15.3696 30.1499 15.6895C29.4898 16.0093 28.7195 16.1689 27.8394 16.1689C26.9077 16.1689 26.0727 15.9724 25.3354 15.5781C24.5985 15.1839 24.0177 14.6126 23.5923 13.8652C23.1669 13.1177 22.9536 12.2079 22.9536 11.1367C22.9536 10.1027 23.1758 9.17787 23.6196 8.36328C24.0634 7.54883 24.681 6.90495 25.4731 6.43262C26.2654 5.96023 27.1903 5.72461 28.2466 5.72461ZM65.2944 5.72461C66.2481 5.72461 67.0697 5.91241 67.7593 6.28809C68.4487 6.66371 68.9787 7.17308 69.3491 7.81641C69.7196 8.4599 69.9048 9.17629 69.9048 9.96484C69.9048 10.307 69.8128 10.5763 69.6294 10.7734L69.5864 10.8174C69.4057 10.9854 69.1557 11.0693 68.8374 11.0693H63.8071L63.8179 11.1211C63.9513 11.7337 64.1799 12.2243 64.5024 12.5928C65.0525 13.2212 65.7859 13.5351 66.7026 13.5352C67.2895 13.5352 67.8091 13.4016 68.2603 13.1338C68.7112 12.866 69.0135 12.4936 69.1675 12.0176C69.2554 11.921 69.3342 11.8557 69.4038 11.8223C69.4734 11.7889 69.5342 11.7725 69.5854 11.7725C69.6587 11.7725 69.7216 11.8019 69.7729 11.8613C69.8243 11.9208 69.8501 12.0217 69.8501 12.1631C69.8501 12.8921 69.6515 13.5597 69.2554 14.166C68.8593 14.7722 68.3057 15.2576 67.5942 15.6221C66.8827 15.9866 66.061 16.1689 65.1294 16.1689C64.1024 16.1689 63.1999 15.9551 62.4224 15.5273C61.6449 15.0996 61.0375 14.5004 60.6011 13.7305C60.1648 12.9607 59.9468 12.07 59.9468 11.0586C59.9468 9.99479 60.1578 9.06241 60.5796 8.2627C61.0014 7.46314 61.6122 6.83985 62.4116 6.39355C63.2112 5.94729 64.1722 5.72461 65.2944 5.72461ZM75.814 5.72461C76.7675 5.72465 77.5893 5.91245 78.2788 6.28809C78.9681 6.66372 79.4983 7.17309 79.8687 7.81641C80.2391 8.4599 80.4243 9.17629 80.4243 9.96484C80.4243 10.3069 80.3322 10.5763 80.1489 10.7734L80.105 10.8174C79.9243 10.9853 79.6751 11.0693 79.3569 11.0693H74.3267L74.3374 11.1211C74.4708 11.7336 74.6986 12.2243 75.021 12.5928C75.5712 13.2214 76.3052 13.5352 77.2222 13.5352C77.8089 13.5351 78.3277 13.4015 78.7788 13.1338C79.2299 12.866 79.533 12.4937 79.687 12.0176C79.7749 11.9211 79.8537 11.8557 79.9233 11.8223C79.993 11.7888 80.0537 11.7725 80.105 11.7725C80.1783 11.7725 80.2411 11.8018 80.2925 11.8613C80.3438 11.9208 80.3687 12.0217 80.3687 12.1631C80.3686 12.8921 80.171 13.5597 79.7749 14.166C79.3789 14.7722 78.8251 15.2576 78.1138 15.6221C77.4023 15.9865 76.5804 16.1689 75.6489 16.1689C74.622 16.1689 73.7195 15.9551 72.9419 15.5273C72.1643 15.0996 71.5571 14.5004 71.1206 13.7305C70.6843 12.9607 70.4663 12.0701 70.4663 11.0586C70.4663 9.99479 70.6773 9.06241 71.0991 8.2627C71.5209 7.46321 72.1317 6.83982 72.9312 6.39355C73.7306 5.94738 74.6918 5.72461 75.814 5.72461ZM107.877 5.72461C109.293 5.72462 110.333 5.99402 110.997 6.5332C111.66 7.07254 111.993 7.83346 111.993 8.81543V13.748C111.993 13.8892 112.024 14.0024 112.086 14.0879C112.149 14.1734 112.242 14.2158 112.367 14.2158C112.455 14.2158 112.538 14.1898 112.615 14.1377C112.691 14.0856 112.748 13.9929 112.785 13.8594C112.807 13.8296 112.832 13.8069 112.862 13.792C112.891 13.7772 112.924 13.7696 112.96 13.7695C113.041 13.7695 113.106 13.8074 113.154 13.8818C113.201 13.9561 113.225 14.0489 113.225 14.1602C113.225 14.4205 113.127 14.7071 112.933 15.0195C112.739 15.332 112.443 15.6022 112.047 15.8291C111.651 16.0559 111.145 16.1689 110.529 16.1689C109.788 16.1689 109.214 16.0113 108.807 15.6953L108.738 15.6387C108.513 15.4478 108.357 15.2313 108.273 14.9902L108.256 14.9404L108.241 14.959C107.973 15.2903 107.624 15.5581 107.195 15.7617C106.623 16.0332 106.006 16.1689 105.346 16.1689C104.466 16.1689 103.76 15.9344 103.228 15.4658C102.697 14.9973 102.431 14.3986 102.431 13.6699C102.431 12.7104 102.818 11.9624 103.591 11.4268C104.365 10.8912 105.541 10.6231 107.118 10.623L107.237 10.624C107.47 10.6289 107.675 10.6484 107.852 10.6826L107.91 10.6953L107.911 7.44336C107.911 7.18299 107.85 6.97575 107.729 6.82324C107.608 6.67082 107.444 6.59473 107.239 6.59473C107.048 6.59481 106.889 6.65235 106.76 6.76758C106.632 6.88283 106.568 7.04479 106.568 7.25293V8.10156C106.568 8.65193 106.385 9.10043 106.018 9.44629C105.651 9.79218 105.148 9.96484 104.51 9.96484C103.99 9.96483 103.592 9.83993 103.317 9.59082C103.042 9.34161 102.904 8.97904 102.904 8.50293C102.904 8.0566 103.089 7.61914 103.459 7.19141C103.83 6.76385 104.384 6.41287 105.121 6.1377C105.858 5.86245 106.777 5.72461 107.877 5.72461ZM127.1 3.30273C127.269 3.30273 127.401 3.35484 127.497 3.45898L127.526 3.49609C127.601 3.60042 127.639 3.75182 127.639 3.9502V5.94727H129.939C130.1 5.94727 130.225 5.98308 130.313 6.05371C130.401 6.12438 130.445 6.23403 130.445 6.38281C130.445 6.59096 130.354 6.76925 130.17 6.91797L130.129 6.94922C129.945 7.07751 129.664 7.1416 129.29 7.1416H127.639V12.2305C127.639 12.7882 127.733 13.201 127.92 13.4688C128.107 13.7364 128.38 13.8701 128.74 13.8701C128.894 13.8701 129.036 13.8364 129.168 13.7695C129.3 13.7026 129.42 13.6157 129.527 13.5078C129.633 13.4001 129.733 13.2791 129.829 13.1455C129.924 13.0116 130.016 12.8771 130.104 12.7432C130.177 12.7134 130.241 12.7266 130.296 12.7822C130.351 12.838 130.376 12.9519 130.369 13.123C130.317 13.7255 130.15 14.2555 129.868 14.7129C129.585 15.1704 129.201 15.5275 128.717 15.7842C128.233 16.0407 127.661 16.1689 127.001 16.1689C125.886 16.1689 125.048 15.8976 124.487 15.3545C123.926 14.8114 123.645 13.9559 123.645 12.7881V7.74414C123.645 7.58794 123.63 7.46854 123.601 7.38672C123.572 7.30513 123.498 7.2385 123.381 7.18652L122.864 7.01855C122.739 6.95914 122.658 6.88712 122.622 6.80176C122.585 6.71624 122.567 6.6098 122.567 6.4834C122.567 6.32725 122.622 6.19904 122.732 6.09863C122.842 5.9982 122.978 5.94727 123.139 5.94727H123.678C123.744 5.94725 123.814 5.9212 123.887 5.86914C123.961 5.81703 124.059 5.71275 124.184 5.55664L126.22 3.84961C126.367 3.67128 126.513 3.53533 126.66 3.44238C126.806 3.34941 126.953 3.30276 127.1 3.30273ZM136.09 5.72461C137.044 5.72466 137.865 5.91258 138.554 6.28809C139.244 6.66375 139.775 7.17296 140.145 7.81641C140.515 8.4599 140.701 9.17629 140.701 9.96484C140.701 10.3069 140.609 10.5763 140.425 10.7734L140.381 10.8174C140.201 10.9853 139.951 11.0693 139.633 11.0693H134.603L134.614 11.1211C134.747 11.7336 134.975 12.2243 135.297 12.5928C135.848 13.2214 136.582 13.5352 137.499 13.5352C138.085 13.5351 138.604 13.4015 139.055 13.1338C139.506 12.866 139.809 12.4937 139.963 12.0176C140.051 11.9211 140.13 11.8557 140.2 11.8223C140.269 11.7889 140.33 11.7725 140.381 11.7725C140.454 11.7725 140.517 11.8022 140.568 11.8613C140.619 11.9208 140.645 12.0217 140.645 12.1631C140.645 12.8921 140.447 13.5598 140.051 14.166C139.655 14.7723 139.101 15.2576 138.389 15.6221C137.678 15.9864 136.857 16.1689 135.925 16.1689C134.898 16.1689 133.996 15.9551 133.218 15.5273C132.441 15.0996 131.833 14.5004 131.397 13.7305C130.961 12.9606 130.743 12.0701 130.743 11.0586C130.743 9.99479 130.953 9.06241 131.375 8.2627C131.796 7.46303 132.408 6.83989 133.208 6.39355C134.007 5.9474 134.968 5.72461 136.09 5.72461ZM38.6226 5.72461C39.6934 5.72464 40.6287 5.9473 41.4282 6.39355C42.2277 6.83984 42.8509 7.45772 43.2983 8.24609C43.7458 9.03465 43.9702 9.94642 43.9702 10.9805C43.9702 11.9623 43.7368 12.8418 43.271 13.6191C42.8052 14.3965 42.1597 15.012 41.3345 15.4658C40.5093 15.9196 39.5504 16.1465 38.4575 16.1465C37.3939 16.1465 36.46 15.9251 35.6567 15.4824C34.8537 15.0398 34.2282 14.4284 33.7808 13.6475C33.3333 12.8663 33.1099 11.9622 33.1099 10.9355C33.1099 9.9536 33.3445 9.06997 33.814 8.28516C34.2834 7.50044 34.9324 6.8772 35.7612 6.41602C36.5901 5.95479 37.5442 5.72461 38.6226 5.72461ZM96.4556 5.72461C97.5266 5.72461 98.4626 5.9472 99.2622 6.39355C100.062 6.83986 100.685 7.45768 101.132 8.24609C101.58 9.03465 101.803 9.94642 101.803 10.9805C101.803 11.9623 101.571 12.8419 101.105 13.6191C100.639 14.3964 99.9936 15.012 99.1685 15.4658C98.3432 15.9196 97.3835 16.1465 96.2905 16.1465C95.227 16.1464 94.2939 15.925 93.4907 15.4824C92.6876 15.0399 92.0622 14.4284 91.6147 13.6475C91.1673 12.8663 90.9429 11.9622 90.9429 10.9355C90.9429 9.95361 91.1775 9.06997 91.647 8.28516C92.1164 7.50032 92.7663 6.87725 93.5952 6.41602C94.424 5.95493 95.3775 5.72466 96.4556 5.72461ZM48.7017 0C49.4865 2.55207e-05 50.1377 0.126976 50.6548 0.379883C51.1717 0.632793 51.5583 0.969445 51.8149 1.38965C52.0716 1.80994 52.2007 2.26919 52.2007 2.76758C52.2006 3.35517 52.048 3.79603 51.7437 4.08984C51.4393 4.38358 51.0485 4.53027 50.5718 4.53027C50.0438 4.53023 49.6181 4.35965 49.2954 4.01758C48.9727 3.67547 48.8111 3.22141 48.811 2.65625V1.66309C48.811 1.40278 48.7604 1.21064 48.6577 1.08789C48.555 0.965144 48.3968 0.904297 48.1841 0.904297C47.9128 0.904339 47.7072 0.996704 47.5679 1.18262C47.4285 1.3686 47.3589 1.63669 47.3589 1.98633C47.3589 2.34334 47.4419 2.67784 47.6069 2.99023C47.7719 3.30262 47.9753 3.59473 48.2173 3.86621C48.4594 4.13774 48.7018 4.39825 48.9438 4.64746C49.1858 4.89657 49.3892 5.14211 49.5542 5.38379L49.6011 5.45703C49.69 5.60167 49.7501 5.74537 49.7798 5.88867L49.7896 5.94727H51.4194C51.5881 5.94729 51.7184 5.98306 51.8101 6.05371C51.9016 6.12439 51.9478 6.23412 51.9478 6.38281C51.9478 6.60593 51.8522 6.78836 51.6616 6.92969C51.4709 7.07101 51.17 7.14158 50.7593 7.1416H49.978V14.0938C49.978 14.3019 50.0094 14.4617 50.0718 14.5732C50.1341 14.6847 50.2344 14.752 50.3735 14.7744L51.3198 14.9189C51.4884 14.9412 51.6131 14.9957 51.6938 15.0811C51.7745 15.1666 51.8149 15.2838 51.8149 15.4326C51.8149 15.7748 51.643 15.9462 51.2983 15.9463H45.2241C45.0775 15.9462 44.9583 15.9029 44.8667 15.8174C44.7751 15.7319 44.729 15.6111 44.729 15.4551C44.729 15.3212 44.7604 15.2127 44.8228 15.1309C44.8851 15.0492 44.9829 14.9827 45.1147 14.9307L45.5874 14.7852C45.7048 14.748 45.7968 14.6774 45.8628 14.5732C45.9287 14.4691 45.9614 14.3203 45.9614 14.127V7.67676C45.9613 7.57282 45.9355 7.4856 45.8843 7.41504C45.8329 7.34441 45.7374 7.27921 45.5981 7.21973L44.9604 7.00781C44.7917 6.92598 44.6705 6.83811 44.5972 6.74512C44.524 6.6522 44.4868 6.53901 44.4868 6.40527C44.4868 6.27147 44.533 6.1617 44.6245 6.07617L44.6606 6.0459C44.7485 5.9804 44.8632 5.94727 45.0044 5.94727H45.9702L45.9624 5.88281C45.9418 5.75239 45.8897 5.62679 45.8071 5.50684C45.6971 5.34695 45.5724 5.16659 45.4331 4.96582C45.2938 4.76499 45.1691 4.52501 45.0591 4.24609C44.9491 3.96716 44.8941 3.62296 44.894 3.21387C44.894 2.23942 45.2242 1.45994 45.8843 0.875977C46.5445 0.292 47.484 0 48.7017 0ZM56.3813 0C57.1662 0 57.8173 0.126986 58.3345 0.379883C58.8516 0.632815 59.2389 0.969334 59.4956 1.38965C59.7523 1.8099 59.8804 2.26925 59.8804 2.76758C59.8803 3.35517 59.7287 3.79603 59.4243 4.08984C59.1199 4.38367 58.7292 4.53025 58.2524 4.53027C57.7244 4.53027 57.2988 4.35959 56.9761 4.01758C56.6534 3.67547 56.4918 3.22141 56.4917 2.65625V1.66309C56.4917 1.40271 56.4401 1.21064 56.3374 1.08789C56.2347 0.965319 56.0773 0.904326 55.8647 0.904297C55.5934 0.904297 55.3879 0.996769 55.2485 1.18262C55.1092 1.3686 55.0396 1.63669 55.0396 1.98633C55.0396 2.34324 55.1217 2.67791 55.2866 2.99023C55.4517 3.30268 55.6559 3.59468 55.8979 3.86621C56.1399 4.13766 56.3815 4.39832 56.6235 4.64746C56.8656 4.89665 57.0698 5.14203 57.2349 5.38379L57.2817 5.45703C57.3706 5.60157 57.4298 5.74546 57.4595 5.88867L57.4702 5.94727H59.0991C59.2677 5.94727 59.3981 5.98317 59.4897 6.05371C59.5814 6.12438 59.6274 6.23403 59.6274 6.38281C59.6274 6.60599 59.532 6.78834 59.3413 6.92969C59.1506 7.0709 58.8496 7.1416 58.439 7.1416H57.6577V14.0938C57.6577 14.3018 57.6892 14.4617 57.7515 14.5732C57.8138 14.6848 57.9148 14.7521 58.0542 14.7744L59.0005 14.9189C59.1691 14.9413 59.2938 14.9956 59.3745 15.0811C59.4552 15.1666 59.4956 15.2838 59.4956 15.4326C59.4956 15.7747 59.3235 15.9461 58.979 15.9463H52.9048C52.7581 15.9463 52.6391 15.9029 52.5474 15.8174C52.4557 15.7319 52.4097 15.6112 52.4097 15.4551C52.4097 15.3212 52.4411 15.2127 52.5034 15.1309C52.5657 15.0493 52.6628 14.9826 52.7944 14.9307L53.2681 14.7852C53.3853 14.7479 53.4765 14.6772 53.5425 14.5732C53.6085 14.4691 53.6421 14.3204 53.6421 14.127V7.67676C53.642 7.57284 53.6162 7.4856 53.5649 7.41504C53.5136 7.34437 53.4182 7.27924 53.2788 7.21973L52.6401 7.00781C52.4716 6.92603 52.3511 6.83804 52.2778 6.74512C52.2045 6.65217 52.1675 6.53909 52.1675 6.40527C52.1675 6.27138 52.2135 6.16172 52.3052 6.07617L52.3413 6.0459C52.4291 5.98048 52.5439 5.94727 52.6851 5.94727H53.6499L53.6431 5.88281C53.6224 5.75239 53.5703 5.62679 53.4878 5.50684C53.3778 5.34694 53.2531 5.16661 53.1138 4.96582C52.9744 4.76501 52.8498 4.52498 52.7397 4.24609C52.6297 3.96716 52.5747 3.62296 52.5747 3.21387C52.5747 2.23933 52.9047 1.45995 53.5649 0.875977C54.2251 0.292076 55.1639 6.4763e-05 56.3813 0ZM88.5669 5.72461C89.1975 5.7247 89.6817 5.93644 90.019 6.36035C90.3565 6.78439 90.5249 7.42807 90.5249 8.29102C90.5249 9.1465 90.3487 9.77505 89.9966 10.1768C89.6445 10.5784 89.1898 10.7793 88.6323 10.7793C88.0896 10.7793 87.6876 10.6414 87.4272 10.3662C87.1671 10.0911 87.0299 9.70072 87.0151 9.19531L87.0044 8.74805C86.997 8.57715 86.9634 8.44331 86.9048 8.34668C86.8461 8.25008 86.7506 8.20215 86.6187 8.20215C86.4867 8.20224 86.3709 8.27067 86.272 8.4082C86.173 8.54583 86.0977 8.75651 86.0464 9.03906C85.9951 9.32168 85.9692 9.68244 85.9692 10.1211V14.0488C85.9692 14.2571 86.0028 14.4232 86.0688 14.5459C86.1348 14.6683 86.2374 14.7446 86.3765 14.7744L87.2017 14.9414C87.3555 14.9637 87.4657 15.0215 87.5317 15.1143C87.5977 15.2072 87.6313 15.3171 87.6313 15.4434C87.6313 15.5921 87.5854 15.7137 87.4937 15.8066C87.402 15.8995 87.2681 15.9462 87.0923 15.9463H81.5903C81.429 15.9463 81.3021 15.9008 81.2104 15.8115C81.119 15.7223 81.0728 15.5994 81.0728 15.4434C81.0728 15.3246 81.1009 15.2264 81.1558 15.1484C81.2108 15.0704 81.286 14.9976 81.3813 14.9307L81.6343 14.8301C81.7296 14.7855 81.7958 14.7148 81.8325 14.6182C81.8692 14.5215 81.8872 14.3609 81.8872 14.1377V8.46973C81.8872 8.29135 81.8669 8.16309 81.8267 8.08496C81.7863 8.00688 81.7188 7.94502 81.6235 7.90039L81.3374 7.86719C81.2347 7.80767 81.1595 7.74371 81.1118 7.67676C81.0643 7.60991 81.0406 7.52476 81.0405 7.4209C81.0405 7.30194 81.0766 7.19549 81.1499 7.10254C81.2232 7.0096 81.348 6.92924 81.5239 6.8623L84.6489 5.95898C84.8323 5.88459 84.9871 5.83249 85.1118 5.80273C85.2362 5.77307 85.3423 5.75786 85.4302 5.75781C85.5549 5.75781 85.6491 5.80235 85.7114 5.8916L85.731 5.92383C85.7824 6.01714 85.8178 6.16708 85.8374 6.37207L85.9214 8.10547L85.9409 8.04199C85.9781 7.92135 86.0184 7.80518 86.063 7.69434C86.3307 7.02853 86.6854 6.53357 87.1255 6.20996C87.5656 5.88647 88.0462 5.72461 88.5669 5.72461ZM148.843 5.72461C149.474 5.72472 149.958 5.93643 150.295 6.36035C150.633 6.78439 150.801 7.42807 150.801 8.29102C150.801 9.1465 150.625 9.77505 150.273 10.1768C149.921 10.5784 149.466 10.7793 148.909 10.7793C148.366 10.7793 147.964 10.6414 147.704 10.3662C147.443 10.0911 147.306 9.70075 147.292 9.19531L147.281 8.74805C147.273 8.57714 147.24 8.44331 147.181 8.34668C147.122 8.25005 147.027 8.20215 146.895 8.20215C146.763 8.20221 146.647 8.27064 146.548 8.4082C146.449 8.54583 146.374 8.75648 146.323 9.03906C146.271 9.32168 146.246 9.68243 146.246 10.1211V14.0488C146.246 14.2571 146.279 14.4232 146.345 14.5459C146.411 14.6683 146.514 14.7447 146.653 14.7744L147.478 14.9414C147.632 14.9637 147.742 15.0215 147.808 15.1143C147.874 15.2072 147.908 15.3171 147.908 15.4434C147.908 15.5921 147.862 15.7137 147.77 15.8066C147.678 15.8995 147.544 15.9462 147.369 15.9463H141.867C141.705 15.9463 141.579 15.9008 141.487 15.8115C141.395 15.7223 141.349 15.5994 141.349 15.4434C141.349 15.3246 141.377 15.2264 141.432 15.1484C141.487 15.0703 141.562 14.9976 141.658 14.9307L141.911 14.8301C142.006 14.7855 142.072 14.7148 142.109 14.6182C142.146 14.5215 142.164 14.3609 142.164 14.1377V8.46973C142.164 8.29137 142.143 8.1631 142.103 8.08496C142.063 8.0069 141.995 7.94502 141.9 7.90039L141.614 7.86719C141.511 7.80767 141.436 7.74371 141.388 7.67676C141.341 7.60991 141.317 7.52478 141.317 7.4209C141.317 7.30192 141.353 7.1955 141.426 7.10254C141.5 7.00958 141.624 6.92924 141.8 6.8623L144.925 5.95898C145.109 5.88459 145.263 5.83249 145.388 5.80273C145.513 5.77307 145.619 5.75785 145.707 5.75781C145.831 5.75781 145.925 5.80233 145.988 5.8916L146.007 5.92383C146.059 6.01714 146.094 6.16708 146.114 6.37207L146.198 8.10547L146.217 8.04199C146.254 7.92134 146.295 7.80519 146.339 7.69434C146.607 7.02871 146.961 6.53357 147.401 6.20996C147.841 5.88636 148.322 5.72461 148.843 5.72461ZM37.8081 6.89648C37.5807 6.94859 37.4123 7.13096 37.3022 7.44336C37.1923 7.75573 37.1484 8.21657 37.1704 8.82617C37.1924 9.43618 37.2868 10.2144 37.4556 11.1592C37.6316 12.1037 37.8169 12.8661 38.0112 13.4463C38.2055 14.0262 38.4112 14.439 38.6274 14.6846C38.8438 14.93 39.0661 15.0309 39.2935 14.9863C39.5209 14.9417 39.6915 14.7626 39.8052 14.4502C39.9188 14.1378 39.967 13.6749 39.9487 13.0615C39.9304 12.4478 39.8328 11.6684 39.6567 10.7236C39.4807 9.77904 39.2932 9.01674 39.0952 8.43652C38.8972 7.85632 38.6905 7.44277 38.4741 7.19727C38.2577 6.95177 38.0355 6.85185 37.8081 6.89648ZM95.6421 6.89648C95.4147 6.94856 95.2453 7.13091 95.1353 7.44336C95.0254 7.75572 94.9815 8.21668 95.0034 8.82617C95.0254 9.43618 95.1208 10.2144 95.2896 11.1592C95.4656 12.1038 95.6509 12.8661 95.8452 13.4463C96.0396 14.0264 96.2451 14.4391 96.4614 14.6846C96.6778 14.9301 96.9 15.031 97.1274 14.9863C97.3547 14.9416 97.5255 14.7625 97.6392 14.4502C97.7527 14.1378 97.8001 13.6748 97.7817 13.0615C97.7634 12.4478 97.6658 11.6684 97.4897 10.7236C97.3137 9.77914 97.1272 9.01671 96.9292 8.43652C96.7311 7.85627 96.5235 7.44276 96.3071 7.19727C96.0909 6.95204 95.8693 6.85203 95.6421 6.89648ZM107.416 11.3711C107.129 11.3711 106.899 11.5047 106.727 11.7725C106.555 12.0402 106.469 12.4346 106.469 12.9551C106.469 13.4535 106.559 13.8237 106.739 14.0654C106.918 14.3071 107.155 14.4286 107.448 14.4287L107.511 14.4258C107.636 14.4171 107.758 14.3823 107.875 14.3213L107.91 14.3008V11.4375L107.855 11.4209C107.73 11.3875 107.584 11.3711 107.416 11.3711ZM64.7661 6.88477C64.5682 6.88482 64.3884 6.96849 64.2271 7.13574C64.0657 7.30308 63.9333 7.5877 63.8306 7.98926C63.7279 8.39097 63.6772 8.94232 63.6772 9.6416C63.6773 9.82608 63.6824 10.0038 63.6929 10.1748L63.6938 10.1992H65.4048C65.6833 10.1991 65.8228 10.0428 65.8228 9.73047C65.8228 8.7113 65.7106 7.98188 65.4868 7.54297C65.2631 7.1043 65.0228 6.88477 64.7661 6.88477ZM75.2856 6.88477C75.0877 6.88477 74.9079 6.96855 74.7466 7.13574C74.5853 7.30307 74.4528 7.58774 74.3501 7.98926C74.2474 8.39097 74.1958 8.94232 74.1958 9.6416C74.1958 9.82607 74.201 10.0038 74.2114 10.1748L74.2134 10.1992H75.9233C76.2021 10.1992 76.3423 10.0429 76.3423 9.73047C76.3423 8.7113 76.2301 7.98188 76.0063 7.54297C75.7827 7.1043 75.5423 6.88486 75.2856 6.88477ZM135.562 6.88477C135.364 6.88477 135.184 6.96858 135.023 7.13574C134.862 7.30307 134.729 7.58775 134.626 7.98926C134.524 8.39097 134.472 8.94232 134.472 9.6416C134.472 9.82607 134.477 10.0038 134.488 10.1748L134.49 10.1992H136.2C136.478 10.1992 136.618 10.0429 136.618 9.73047C136.618 8.7113 136.506 7.98188 136.283 7.54297C136.059 7.10433 135.819 6.88491 135.562 6.88477Z" fill="white"/>
</svg>
