<svg width="24" height="24" viewBox="0 0 24 24" fill="none" xmlns="http://www.w3.org/2000/svg">
<path d="M10.5112 10.5026C14.0256 6.99164 19.2347 6.48448 22.1235 9.37762C25.0138 12.268 24.51 17.4779 20.9976 20.9909C19.3103 22.6783 17.1845 23.7316 15.0112 23.9567C14.722 23.9852 14.4351 24.0006 14.1548 24.0007C12.286 24.0007 10.6162 23.3447 9.38623 22.1149C7.97032 20.7005 7.31646 18.7023 7.54736 16.4899C7.77089 14.3165 8.82381 12.1901 10.5112 10.5026ZM21.9438 9.55829C20.9825 10.7177 20.2726 12.0409 19.0923 13.0114C17.8354 14.0448 16.452 14.421 14.9312 14.862C11.5939 15.831 9.94401 18.6528 9.56299 21.9362C10.6053 20.6838 11.3702 19.2796 12.687 18.2731C13.8389 17.3942 15.086 17.046 16.4419 16.6755C19.8525 15.7394 21.5463 12.8941 21.9438 9.55829ZM1.87646 1.87762C4.76536 -1.01438 9.97533 -0.508804 13.4897 3.00262C14.4257 3.93864 15.1423 5.01645 15.6538 6.15497C13.974 6.44451 12.3467 7.14642 10.9038 8.20087C10.3549 7.8559 9.75625 7.56052 9.06787 7.36102C7.54841 6.92002 6.16371 6.54448 4.90674 5.50946C3.72782 4.53895 3.01813 3.21432 2.05518 2.05634C2.45117 5.39238 4.14622 8.23848 7.55713 9.1745C8.13312 9.332 8.68563 9.49324 9.22412 9.68524C7.59816 11.3983 6.52632 13.4854 6.15283 15.6559C5.01447 15.1429 3.93639 14.4268 3.00049 13.4909C-0.507856 9.97786 -1.01392 4.76815 1.87646 1.87762Z" fill="#0E8784"/>
</svg>
